<svg width="180" height="50" viewBox="0 0 180 50" fill="none" xmlns="http://www.w3.org/2000/svg">
<path d="M34.1562 15.8316C24.5156 6.19098 13.3522 1.72387 7.46906 7.60704C1.58589 13.4902 6.053 24.6536 15.6936 34.2942C25.3342 43.9348 36.4184 48.481 42.3807 42.5187C48.343 36.5564 43.7968 25.4722 34.1562 15.8316Z" fill="white"/>
<path d="M38.1554 23.2113C39.2595 24.7632 40.2033 26.3067 40.9687 27.8197C41.5427 28.9555 42.0145 30.071 42.376 31.1721C42.8628 32.6704 43.1551 34.1361 43.1347 35.6131C40.8714 36.1485 38.707 36.1451 36.688 35.7813C36.7096 35.5969 36.7169 35.3404 36.686 35.0157C36.6283 34.3822 36.4217 33.5119 36.0384 32.5109C35.4675 31.0064 34.507 29.2104 33.2076 27.3333C31.9103 25.4542 30.276 23.488 28.3733 21.5854C26.6073 19.8193 24.7877 18.2856 23.033 17.0367C21.7179 16.0994 20.4374 15.3226 19.2575 14.7264C18.3725 14.2793 17.544 13.9345 16.8099 13.6922C15.7087 13.3267 14.8146 13.2182 14.3137 13.255C14.2616 13.2589 14.2175 13.2628 14.1754 13.2687C13.8136 11.2497 13.8082 9.08523 14.3456 6.82196C14.3756 6.82203 14.4057 6.8181 14.4337 6.81817C15.9107 6.81588 17.3785 7.11618 18.8768 7.61296C21.1213 8.36413 23.4511 9.57446 25.8259 11.1657C28.1948 12.7589 30.5987 14.737 32.9112 17.0475C34.9223 19.0587 36.6832 21.1433 38.1554 23.2113Z" fill="#F79342"/>
<path fill-rule="evenodd" clip-rule="evenodd" d="M11.7522 19.4349L14.3369 16.128C15.1859 15.0417 16.1233 13.9802 17.1452 12.9583C21.2588 8.84468 26.049 6.06744 30.5419 4.95826C34.9946 3.85903 39.4649 4.34888 42.4604 7.28273C42.4873 7.30849 42.5139 7.33452 42.5402 7.36086C42.5765 7.39711 42.6121 7.43383 42.6472 7.47101C45.56 10.4715 46.04 14.9352 44.9378 19.3803C43.8253 23.8673 41.0503 28.6492 36.9428 32.7566C35.921 33.7785 34.8594 34.7159 33.7733 35.5649L30.4663 38.1496L30.9569 34.2799C30.1855 35.0135 29.3964 35.7271 28.5941 36.416C24.9774 39.5213 21.2127 42.0193 17.7569 43.563L13.6307 45.4062L15.6073 40.9812C13.8435 42.0394 12.2896 42.8367 11.007 43.4281C9.8049 43.9824 8.84156 44.3557 8.16763 44.5933C7.83067 44.712 7.56605 44.7969 7.38009 44.8535C7.28711 44.8818 7.2138 44.9031 7.16093 44.918C7.13449 44.9255 7.11317 44.9313 7.09706 44.9357C7.089 44.9379 7.08225 44.9397 7.07681 44.9411L7.06964 44.943L7.06556 44.9441C7.065 44.9442 7.06445 44.9444 6.62952 43.2716C6.62952 43.2716 7.37191 43.0786 8.6937 42.5463C10.4893 41.8233 13.3541 40.4743 16.8796 38.1329C17.7617 37.5471 18.6851 36.8992 19.6435 36.1834L17.052 41.9849C17.8465 41.63 18.6624 41.2197 19.4929 40.7583C22.0757 39.3236 24.8003 37.3953 27.4682 35.1046C28.7918 33.9682 30.0791 32.7617 31.3083 31.5087C31.9998 30.8038 32.6729 30.0843 33.3237 29.3542L32.7089 34.2031C33.3697 33.6866 34.0216 33.135 34.6608 32.5493C35.0183 32.2216 35.3718 31.8833 35.7207 31.5345C43.5651 23.6901 46.0894 13.4816 41.3978 8.66537C41.3717 8.63749 41.3451 8.61005 41.3181 8.58302C41.2984 8.5633 41.2784 8.54383 41.2582 8.52459C36.451 3.80415 26.2236 6.32425 18.3674 14.1804C18.0185 14.5293 17.6802 14.8829 17.3525 15.2404C16.7668 15.8796 16.2152 16.5315 15.6987 17.1923L20.5467 16.5776C19.8166 17.2284 19.097 17.9015 18.3921 18.593C17.1393 19.8221 15.9329 21.1094 14.7965 22.4329C12.5058 25.1008 10.5775 27.8254 9.14277 30.4082C8.68142 31.2387 8.2711 32.0546 7.91616 32.8491L13.7264 30.2538C13.0121 31.2112 12.3651 32.1342 11.7798 33.0163C9.44103 36.5407 8.08678 39.4113 7.35941 41.2097C6.82573 42.5292 6.62952 43.2716 6.62952 43.2716C4.9585 42.8299 4.95865 42.8294 4.95879 42.8288L4.95986 42.8248L4.96177 42.8177C4.96322 42.8123 4.96504 42.8056 4.96725 42.7976C4.97166 42.7815 4.97759 42.7603 4.98514 42.7339C5.00023 42.6811 5.02176 42.6077 5.05042 42.5147C5.10775 42.3286 5.19361 42.0636 5.31353 41.7261C5.55336 41.0512 5.92942 40.0864 6.48588 38.8833C7.07894 37.6011 7.87675 36.0485 8.93257 34.2881L4.49491 36.2704L6.33806 32.1442C7.88175 28.6884 10.3798 24.9237 13.4851 21.307C14.1739 20.5048 14.8875 19.7158 15.621 18.9444L11.7522 19.4349ZM6.62952 43.2716L7.06445 44.9444L4.203 45.6884L4.95851 42.8299L6.62952 43.2716Z" fill="white"/>
<path d="M6.62952 43.2716C6.62952 43.2716 7.37191 43.0786 8.6937 42.5463C10.4893 41.8233 13.3541 40.4743 16.8796 38.1329C17.7617 37.5471 18.6851 36.8992 19.6435 36.1834L17.052 41.9849C17.8465 41.63 18.6624 41.2197 19.4929 40.7583C22.0757 39.3236 24.8003 37.3953 27.4682 35.1046C28.7918 33.9682 30.0791 32.7617 31.3083 31.5087C31.9998 30.8038 32.6729 30.0843 33.3237 29.3542L32.7089 34.2031C33.3697 33.6866 34.0216 33.135 34.6608 32.5493C35.0183 32.2216 35.3718 31.8833 35.7207 31.5345C43.5651 23.6901 46.0894 13.4816 41.3978 8.66537C41.3717 8.63749 41.3451 8.61005 41.3181 8.58302C41.2984 8.5633 41.2784 8.54383 41.2582 8.52459C36.451 3.80415 26.2236 6.32425 18.3674 14.1804C18.0185 14.5293 17.6802 14.8829 17.3525 15.2404C16.7668 15.8796 16.2152 16.5315 15.6987 17.1923L20.5467 16.5776C19.8166 17.2284 19.097 17.9015 18.3921 18.593C17.1393 19.8221 15.9329 21.1094 14.7965 22.4329C12.5058 25.1008 10.5775 27.8254 9.14277 30.4082C8.68142 31.2387 8.2711 32.0546 7.91616 32.8491L13.7264 30.2538C13.0121 31.2112 12.3651 32.1342 11.7798 33.0163C9.44103 36.5407 8.08678 39.4113 7.35941 41.2097C6.82573 42.5292 6.62952 43.2716 6.62952 43.2716Z" fill="white"/>
<path fill-rule="evenodd" clip-rule="evenodd" d="M15.6984 17.1921C16.5038 16.1617 17.3946 15.1528 18.3671 14.1802C26.2233 6.32402 36.4508 3.80392 41.258 8.52437C41.2782 8.54361 41.2981 8.56307 41.3178 8.5828C41.3449 8.60982 41.3714 8.63727 41.3975 8.66515C46.0891 13.4814 43.5648 23.6899 35.7204 31.5343C34.7479 32.5068 33.7391 33.3975 32.7086 34.2029L33.3235 29.3539C31.5159 31.3818 29.5362 33.3286 27.4679 35.1044C23.9422 38.1316 20.3173 40.526 17.0517 41.9847L19.6432 36.1832C12.0346 41.8659 6.62927 43.2714 6.62927 43.2714C6.62927 43.2714 8.06391 37.8434 13.7261 30.2535L7.91591 32.8489C9.37466 29.5833 11.769 25.9584 14.7962 22.4327C16.572 20.3645 18.5187 18.3849 20.5464 16.5774L15.6984 17.1921Z" fill="#0000FF"/>
<path d="M13.1792 14.7923C13.2569 15.4218 13.4614 16.244 13.8205 17.1828C14.1655 18.0915 14.653 19.1068 15.267 20.1806C16.8374 23.0584 18.8092 25.34 20.1656 26.7824C20.6378 27.2986 21.1281 27.8149 21.6384 28.3252C22.1226 28.8094 22.6108 29.2736 23.1009 29.7217C24.5453 31.0842 26.8732 33.1122 29.8252 34.7169C30.2025 34.9322 30.5738 35.1356 30.935 35.3189C31.836 35.7761 32.6826 36.1269 33.4307 36.3733C34.0967 36.5954 34.6862 36.7212 35.1653 36.7825C37.6278 37.3458 40.3214 37.4147 43.1573 36.6283C43.1052 37.4558 42.945 38.2931 42.6244 39.108C42.3038 39.9228 41.8088 40.7112 41.1531 41.3629C40.3774 42.1405 39.4168 42.6872 38.4416 42.9974C37.5846 43.2718 36.7151 43.3819 35.8553 43.3857C34.3483 43.3899 32.8524 43.0815 31.324 42.5747C29.0334 41.8094 26.6575 40.5749 24.2384 38.9515C21.8214 37.3261 19.3693 35.3098 17.0126 32.9531C14.9613 30.9017 13.1663 28.7769 11.6639 26.6668C10.5376 25.0827 9.57569 23.5091 8.79422 21.966C8.21012 20.8081 7.72627 19.6686 7.3587 18.5474C6.81135 16.8625 6.50259 15.2184 6.5966 13.5552C6.64662 12.7257 6.80683 11.8844 7.13144 11.0675C7.45205 10.2526 7.94708 9.46629 8.60278 8.8126C9.37841 8.03496 10.339 7.48826 11.3142 7.17808C11.985 6.96332 12.6621 6.85079 13.3374 6.81041C12.5509 9.64222 12.6198 12.3319 13.1812 14.7923L13.1792 14.7923Z" fill="#FBB042"/>
<path d="M61.6942 35.5C60.9429 35.5 60.2509 35.3122 59.6182 34.9365C59.0053 34.5609 58.511 34.0666 58.1353 33.4537C57.7597 32.821 57.5718 32.129 57.5718 31.3777V29.7465H61.4866V31.1997C61.4866 31.2986 61.5162 31.3875 61.5755 31.4666C61.6546 31.5259 61.7436 31.5556 61.8425 31.5556H74.6247C74.7235 31.5556 74.8026 31.5259 74.8619 31.4666C74.941 31.3875 74.9806 31.2986 74.9806 31.1997V27.1367C74.9806 27.0378 74.941 26.9588 74.8619 26.8994C74.8026 26.8401 74.7235 26.8105 74.6247 26.8105H61.6942C60.9429 26.8105 60.2509 26.6226 59.6182 26.247C59.0053 25.8713 58.511 25.377 58.1353 24.7641C57.7597 24.1314 57.5718 23.4296 57.5718 22.6585V18.2692C57.5718 17.5179 57.7597 16.8358 58.1353 16.2229C58.511 15.5902 59.0053 15.086 59.6182 14.7104C60.2509 14.3347 60.9429 14.1469 61.6942 14.1469H74.8026C75.5539 14.1469 76.236 14.3347 76.849 14.7104C77.4816 15.086 77.9858 15.5902 78.3615 16.2229C78.7371 16.8358 78.9249 17.5179 78.9249 18.2692V19.9004H74.9806V18.4472C74.9806 18.3483 74.941 18.2692 74.8619 18.2099C74.8026 18.1308 74.7235 18.0913 74.6247 18.0913H61.8425C61.7436 18.0913 61.6546 18.1308 61.5755 18.2099C61.5162 18.2692 61.4866 18.3483 61.4866 18.4472V22.5102C61.4866 22.609 61.5162 22.6881 61.5755 22.7474C61.6546 22.8068 61.7436 22.8364 61.8425 22.8364H74.8026C75.5539 22.8364 76.236 23.0242 76.849 23.3999C77.4816 23.7756 77.9858 24.2797 78.3615 24.9124C78.7371 25.5253 78.9249 26.2173 78.9249 26.9884V31.3777C78.9249 32.129 78.7371 32.821 78.3615 33.4537C77.9858 34.0666 77.4816 34.5609 76.849 34.9365C76.236 35.3122 75.5539 35.5 74.8026 35.5H61.6942ZM90.9708 35.5C90.2195 35.5 89.5275 35.3122 88.8948 34.9365C88.2819 34.5609 87.7876 34.0666 87.412 33.4537C87.0363 32.821 86.8485 32.129 86.8485 31.3777V18.2692C86.8485 17.5179 87.0363 16.8358 87.412 16.2229C87.7876 15.5902 88.2819 15.086 88.8948 14.7104C89.5275 14.3347 90.2195 14.1469 90.9708 14.1469H104.079C104.831 14.1469 105.513 14.3347 106.126 14.7104C106.758 15.086 107.262 15.5902 107.638 16.2229C108.014 16.8358 108.202 17.5179 108.202 18.2692V31.3777C108.202 32.129 108.014 32.821 107.638 33.4537C107.262 34.0666 106.758 34.5609 106.126 34.9365C105.513 35.3122 104.831 35.5 104.079 35.5H90.9708ZM91.1191 31.5556H103.872C103.971 31.5556 104.06 31.5259 104.139 31.4666C104.218 31.3875 104.257 31.2986 104.257 31.1997V18.4472C104.257 18.3483 104.218 18.2692 104.139 18.2099C104.06 18.1308 103.971 18.0913 103.872 18.0913H91.1191C91.0203 18.0913 90.9313 18.1308 90.8522 18.2099C90.7929 18.2692 90.7632 18.3483 90.7632 18.4472V31.1997C90.7632 31.2986 90.7929 31.3875 90.8522 31.4666C90.9313 31.5259 91.0203 31.5556 91.1191 31.5556ZM116.213 35.5V14.1469H120.513L133.621 29.7465V14.1469H137.566V35.5H133.266L120.127 19.8707V35.5H116.213ZM145.218 35.5V14.1469H149.103V35.5H145.218ZM160.844 35.5C160.092 35.5 159.4 35.3122 158.768 34.9365C158.155 34.5609 157.66 34.0666 157.285 33.4537C156.909 32.821 156.721 32.129 156.721 31.3777V18.2692C156.721 17.5179 156.909 16.8358 157.285 16.2229C157.66 15.5902 158.155 15.086 158.768 14.7104C159.4 14.3347 160.092 14.1469 160.844 14.1469H178.015V18.0913H161.674C161.358 18.0913 161.101 18.1802 160.903 18.3582C160.725 18.5361 160.636 18.7932 160.636 19.1293V30.5176C160.636 30.8339 160.725 31.091 160.903 31.2887C161.101 31.4666 161.358 31.5556 161.674 31.5556H178.015V35.5H160.844Z" fill="white"/>
</svg>
